<svg id="Layer_1" data-name="Layer 1" xmlns="http://www.w3.org/2000/svg" viewBox="0 0 708.29 461.02"><title>elephant</title><path d="M217.51,291.33a38.45,38.45,0,0,0-.76,4,7.84,7.84,0,0,1-3.46,5.94c-1.29,1-1.67,3.16-2.43,4.81-.08.17.18.48.13.69-.43,2.07-1.7,4.38-1.15,6.13a6.54,6.54,0,0,1-1,6.23c-.22.33-.38.87-.67,1-4.62,1.51-3.3,5.2-3.18,8.46a5.54,5.54,0,0,1-.11,1.87c-.7,2.15-2,4.25-2.15,6.42-.26,4.68-2.12,9-2.2,13.76-.09,5.48-2.19,10.55-4.58,15.51-1.18,2.43-1.37,5.34-2,8-.49,2-1,4-1.53,5.9-1.47,5-3,10-4.51,15a5.25,5.25,0,0,1-.57,1.29c-1.94,3-3.91,6.07-5.84,9.12a2.15,2.15,0,0,0-.4,1.33c.52,3-1.69,4.46-3.39,6.29a11.55,11.55,0,0,0-2.14,3.47c-.73,1.8-1,3.81-1.85,5.53-.46.92-1.76,1.4-2.65,2.12a18.2,18.2,0,0,0-2.28,2,25.46,25.46,0,0,0-1.89,2.7,5.45,5.45,0,0,0-1.05,1.79c-.32,1.82-.4,3.69-2.32,4.73-.18.1-.23.55-.23.84a3.6,3.6,0,0,1-2.89,3.66,5.46,5.46,0,0,0-4,4.32c-.14.54-.17,1.26-.53,1.56-4.23,3.56-5.41,9.67-10.46,12.56-.53.3-.68,1.21-1.09,1.77-1.12,1.51-2.29,3-3.44,4.48-.47.61-1.33,1.23-1.33,1.84a5.65,5.65,0,0,1-3.17,5.21,4.85,4.85,0,0,0-1.51,2.26c-.64,1.5-1.23,2.88-3.1,3.33-.67.16-1.16,1.16-1.7,1.79-1.32,1.53-2.57,3.12-4,4.58-2.12,2.22-4.44,4.26-6.49,6.54A100.71,100.71,0,0,1,107,501.71c-4.83,3.81-10.5,6.81-13.1,13.14-1.3,3.16-4,4.19-6.39.32a19.18,19.18,0,0,1-1.48-3c-1.5-3.73-4.19-5.31-8.22-4.76a19.82,19.82,0,0,1-3.31.48,3.39,3.39,0,0,1-2.46-.91,3.1,3.1,0,0,1,.28-2.58,17,17,0,0,1,8.44-7.07c9.24-4.06,16.48-10.69,22.86-18.16,3.57-4.17,5.9-9.4,8.77-14.16,1.81-3,3.54-6.06,5.35-9.07,4.39-7.29,9-14.46,13.14-21.88,3.49-6.24,6.61-12.7,9.62-19.2,3.36-7.27,6.66-14.6,9.49-22.08,1.66-4.41,2.44-9.16,3.48-13.79s2-9.25,2.77-13.9c.37-2.16.13-4.42.43-6.6a30.5,30.5,0,0,1,1.31-4.67c.13-.44.49-.83.55-1.27.36-2.87.66-5.75,1-8.62a2.17,2.17,0,0,0,0-1.14c-1.11-2-.32-3.68.8-5.35.89-1.34,1.27-2.53,0-4.09-.58-.72-.31-2.4,0-3.5.58-1.88,1.56-3.62,2.27-5.47a1.73,1.73,0,0,0-.19-1.51c-1.67-1.7-1.25-3.64-.87-5.63.65-3.43,1.25-6.86,1.82-10.3a12.13,12.13,0,0,0,0-1.91c0-3.57,0-7.14.06-10.7.08-5.27.32-10.68.83-15.92.45-4.56,1.65-9,2.4-13.58.35-2.14.29-4.34.61-6.49.65-4.41,1.43-8.8,2.15-13.2.66-4,2.41-7.78,2.49-12,.07-3.76,1.52-7.48,2.25-11.24.45-2.32.71-4.68,1.06-7a3.4,3.4,0,0,1,.31-1.39c3.14-4.5,3-10.11,5.18-15,1.23-2.81,1-6.26,1.41-9.42a90.65,90.65,0,0,1,8.44-27.3,159.57,159.57,0,0,0,9.57-23.17c1.3-4.19,3.67-8.1,5.86-12,2.44-4.3,5.23-8.4,7.86-12.59a45.77,45.77,0,0,1,12-12.89c5.12-3.72,10.16-7.52,16.2-9.58,4.3-1.46,8.66-2.76,13.07-3.88,2.92-.74,5.62-1.65,7.9-3.74,3.19-2.91,6.53-5.65,9.79-8.48,7.15-6.23,15.41-10.49,24.2-13.85.67-.26,1.37-.45,2-.75,6.53-2.93,15.25-.08,18.29,6.43a19.22,19.22,0,0,1,1.26,7.92c0,2.19.73,2.59,2.51,2.06,5.8-1.74,11.68-3.28,17.37-5.34,9.3-3.36,18.36-7.44,27.75-10.53a57.47,57.47,0,0,1,37,.28A93.86,93.86,0,0,0,414,64.26c5.79,1.18,11.57,2.46,17.41,3.29,7.27,1,14.59,1.66,21.9,2.39,4.65.46,9.39.49,14,1.29,2.91.51,5.82,1,8.76,1.25,7.58.77,15.28.28,22.84,0,8.06-.34,16.41,1.07,24.37.09,7.8-1,15.57-1.89,23.31-3.29s15.42-3.12,23.17-4.36c6.37-1,12.86-2.15,19.26-1.94,11.37.38,22.88.46,33.8,4.6,7,2.66,14.19,4.84,21.07,7.76,4.6,2,8.78,4.88,13.18,7.3,4.76,2.61,9.64,5,14.31,7.75,7.82,4.6,16.21,8.3,22.73,15,4.17,4.26,9,7.9,13.06,12.24A67,67,0,0,1,717,130.15c5.1,9,12.26,16.49,18.07,25,3.55,5.16,6.21,10.93,9.76,16.09,3.19,4.65,3.61,10.15,5.68,15.12,2.23,5.35,5,10.56,6.57,16.09,1.76,6.18,4.37,12.31,2.71,19.18-1,4.07-.6,8.44-1.18,12.62-.89,6.47-1.9,12.94-3.16,19.35-3,15.16-5.19,30.31-3.32,45.85a188.45,188.45,0,0,0,7.58,33.27c1.68,5.41,3.51,10.78,5.19,16.19a4.37,4.37,0,0,0,3,3.27c4.8,1.68,8.7,4.55,11.07,9.29a9,9,0,0,1-1.18,10.46c-3.81,4.3-7.76,8.45-10.39,13.67a11.84,11.84,0,0,1-3.34,4c-3.92,2.94-5.66,7-6.61,11.57-.11.53-.31,1.05-.68,2.3-1.8-1.52-3.69-2.54-4.75-4.12-3-4.44-5.06-9.35-4.63-14.81a20.05,20.05,0,0,1,2.15-7.77A45.88,45.88,0,0,0,755,359.31a3,3,0,0,1,.27-1.16c2.62-4.55,1.44-9-.06-13.6-2.45-7.49-4.79-15-6.94-22.6-2.08-7.34-4.06-14.73-5.75-22.17-2.59-11.44-3-23.06-2.4-34.75.28-5.42.2-10.86.31-16.29,0-1.91.18-3.83.25-5.74a5.41,5.41,0,0,0-.12-2.13,6.74,6.74,0,0,0-1.4-1.64c-.37.55-1,1.07-1.08,1.65-.28,2.37-.17,4.81-.6,7.15-1.19,6.53-1.49,13.14-4.19,19.49C731,273,730.06,279.13,729,285.07c-.33,1.91,1,4.11,1.62,6.17.49,1.68,1.08,3.32,1.51,5,1.46,5.79,3.14,11.55,4.24,17.41,1.3,6.9,2.16,13.88,3.06,20.85.68,5.3,1.37,10.62,1.59,15.94a50.75,50.75,0,0,1-.84,11.38c-1.09,5.77-2.56,11.31-1.18,17.4,1,4.59.49,9.54.68,14.32a115.41,115.41,0,0,0,4.88,28c1.83,6.2,3.55,12.45,5.75,18.52,1.87,5.16,4.63,10,6.5,15.17a45.8,45.8,0,0,1,2.57,11.42c.28,3.1-.43,6.32-.93,9.46-.89,5.55.34,10.78,1.89,16a103.79,103.79,0,0,1,2.7,10.43c1.65,8.9-.15,12-8.79,14.53A53,53,0,0,1,742.53,519c-7.06.4-14.16.63-21.23.42-8-.24-16.06-1-24.09-1.61-2.15-.15-4.3-.34-6.44-.58-2.49-.28-5.18-.53-6.13-3.34-1.07-3.18-1.32-6.58.92-9.37,2.58-3.2,5.59-6.06,8.29-9.16a25.19,25.19,0,0,0,3.07-4.44c1.94-3.54,3.76-7.14,5.56-10.76.45-.9,1.11-2.16.81-2.9-.88-2.14,0-4,.32-6,.26-1.57-.45-3.27-.58-4.92-.53-6.33-.84-12.69-1.54-19a97.54,97.54,0,0,0-2.16-11.27c-1.61-6.9-3.21-13.81-5.09-20.64-1.82-6.6-3.87-13.14-6-19.63-2.51-7.53-7.76-13.14-13.66-18.11a109.67,109.67,0,0,0-21.3-14.06,35.61,35.61,0,0,1-5.66-4c-1.66-1.3-2.87-1.39-4.84-.08a11.58,11.58,0,0,0-4.59,5,5.44,5.44,0,0,1-2,2.05,16,16,0,0,0-6.6,9.57,43.46,43.46,0,0,1-2.45,6.75c-1,2.2-2.41,4.24-3.61,6.36-.42.74-1.12,1.57-1,2.29.54,5.17-2,9.6-3.24,14.34-.91,3.47-1.44,7-2.1,10.56a63.2,63.2,0,0,0-1,6.68c-.11,1.4.52,2.85.41,4.25-.3,3.75-.84,7.48-1.25,11.22-.38,3.56-.95,7.12-1,10.69-.21,9.15-2.33,17.63-7.4,25.41-1.3,2-1.27,4.86-1.85,7.33-.86,3.64-1.8,7.27-2.54,10.94-.68,3.34-1.1,6.74-1.72,10.1-1,5.49-5.13,7.1-9.78,8a18.7,18.7,0,0,0-1.9.17c-6,1.82-12,.5-18.05,0-10.89-.89-20.81-4.6-30.4-9.53-3.4-1.75-3.38-1.62-5.65,1.47-5.12,7-12,7.15-17.17.8-4.23-5.18-8.1-10.76-12.89-15.37-5.29-5.09-10.95-10.08-18.74-11.37a108.36,108.36,0,0,1-11.67-2.63,19.08,19.08,0,0,1-5.56-2.72c-7.52-5.23-13.64-12-19.89-18.6-3.85-4.08-5.34-9.43-6.33-14.77-1.33-7.13-2.3-14.33-3.28-21.52-.9-6.62-1.72-13.26-2.37-19.92s-.85-13.4-1.61-20.06a122.77,122.77,0,0,0-2.53-13.34c-1.92-8.43-5.64-16.2-9-24.12-1.31-3.13-1.46-6.74-2.75-9.89-2-4.86-4.52-9.49-6.74-14.25-1.45-3.11-2.76-6.28-4.14-9.42-1-2.3-4.46-4-6.79-3.12a2,2,0,0,0-1,1.42c-1.47,10.93-7.53,20.1-11.41,30.11-1,2.6-1.6,5.36-2.65,7.94-1.71,4.2-3.55,8.36-5.52,12.44-2.11,4.36-4.55,8.55-6.65,12.91-2.63,5.45-5.37,10.89-7.53,16.53-3,8-5.68,16.08-8.31,24.19-3.63,11.18-3.82,23-5.93,34.42-.81,4.39-1.87,8.74-3,13.07-1.25,4.85-2.67,9.65-4,14.47-.39,1.38-1,2.7-1.3,4.1-.55,2.7-1,5.3.61,8,1.26,2.11,1.58,4.75,2.56,7.05.57,1.34,1.79,2.41,2.43,3.73a28.77,28.77,0,0,1,2.61,6.59c.82,4.11,1.66,8.27.1,12.5-1.28,3.47-3,5.07-6.62,5.07-5.65,0-11.3-.1-17-.15-4.75,0-9.5-.05-14.25-.12s-9.36-.05-14-.34-9.15-.91-13.73-1.37c-1.43-.14-2.87-.19-4.3-.32-3.16-.3-4.57-2.58-3.68-5.57,1.83-6.12,6.83-9.89,10.57-14.6,3.13-3.95,7.15-7.1,9.46-11.86,1.07-2.2,1.74-4.48,2.67-6.69a1.61,1.61,0,0,0,0-1.32c-1.39-1.86-.8-3.47.19-5.31a3.9,3.9,0,0,0-.31-4.48c-1.67-2.11-1.67-4.5-1-7.06a11.5,11.5,0,0,0-.15-3.83c0-.54-.48-1.09-.41-1.59,1.1-7.56-.69-15.36,1.91-22.8.27-.76-.1-1.73-.09-2.61,0-1.9,0-3.81.17-5.71.28-3.08.75-6.15,1.07-9.23.44-4.28.82-8.56,1.19-12.85.28-3.32.57-6.65.72-10q.42-9.08.67-18.16c.05-2.06-.24-4.14-.25-6.2-.08-12-.27-23.95-.13-35.92.09-7.35,1.59-14.53,3.41-21.67,2-8,3.51-16.19,5.25-24.29.38-1.76-.57-2.15-2-2s-2.66.6-4,.72c-6,.52-9.94-2.54-10.27-8.57-.3-5.47-.12-11,0-16.47,0-1.7-.24-2.26-2.09-2.54a48.23,48.23,0,0,1-8.4-2.35c-1.29-.45-2.32-.85-3.53.16a7.84,7.84,0,0,1-2.55,1.3,9.83,9.83,0,0,0-5.83,4.51c-1,1.71-3.21,2.71-5,4.12,1.63,2.43.26,4.61-1.55,5.93a5.46,5.46,0,0,1-6.34-.08,22,22,0,0,1-3.94-3.45,5.32,5.32,0,0,0-7.68-.74c-3.18,2.62-6.06,5.77-9.6,7.75-3.81,2.13-6.82,6-10.8,7-6,1.51-8.13,6.83-12.34,10a22.14,22.14,0,0,0-1.76,1.63c1.48-2.66,3.92-5.69,4.31-8.72a57.21,57.21,0,0,0,.11-9.46c0-.49-.13-1.34-.34-1.38a2.78,2.78,0,0,0-1.68.27,43,43,0,0,0-4,2.18c-1.72,1.08-3.73,2-5,3.45a85.31,85.31,0,0,1-38.61,26.11,9.82,9.82,0,0,0-3.32,1.8,3,3,0,0,0-1,2.42,4.05,4.05,0,0,0,2.11,1.95,4.67,4.67,0,0,0,2.59.27c5.48-.85,11-1.43,16.39-2.81a48.42,48.42,0,0,0,11.66-4.88C207,298.47,212.19,294.78,217.51,291.33Zm356,40.36c-6.24,0-11.93,0-17.62,0-2.15,0-4.32.24-6.46.1-9.1-.62-17.53-4-26.12-6.66-3.07-1-3.58-.38-3.57,2.78a23.62,23.62,0,0,1-1.37,7.12,70.1,70.1,0,0,1-3.36,8.28,73.18,73.18,0,0,1-3.72,6.8c-.56.93-1.72,1.55-2.17,2.51-2.41,5.18-4.76,10.38-6.95,15.66-.75,1.81-.91,3.87-1.43,5.78-1,3.77-2.33,7.47-3.19,11.27-1.65,7.3-3.19,14.62-4.54,22a45.13,45.13,0,0,0-1,11.1c.27,3.81.8,7.52.42,11.4-.18,1.88,1.31,3.92,2.05,5.89,0,.06.15.07.19.13a25.5,25.5,0,0,1,2.18,2.69c1.27,2.06,2.85,3.61,5.39,3.88a29.57,29.57,0,0,0,4.41.41c2.3-.11,4.6-.7,6.74.74.21.14.75-.18,1.13-.29,4.95-1.52,9.85-3.17,14.85-4.52,7.37-2,14.34,1.76,16,8.84,1.57,6.58,3.5,13.18,2.26,20.11a9.79,9.79,0,0,0,.3,2.54,9,9,0,0,0,1.9-1.45c3.45-4.86,7.73-9.37,10.07-14.73,6.36-14.59,13-29.19,14.37-45.42.28-3.21,1.74-6.29,2.32-9.49,2-11.12,2.19-22.36,1.68-33.61-.18-4-.3-8.09-.68-12.11-.3-3.11-1-6.19-1.45-9.29-.24-1.69.22-3.57-1.84-4.58-.31-.15-.38-1-.42-1.5C573.68,336.1,573.6,334.15,573.46,331.69Z" transform="translate(-71.88 -58.47)"/></svg>